# xmcd CD database file
# Copyright (C) 1993-1998 Ti Kan
# 
# Track frame offsets:
#     150
#     23080
#     41700
#     58012
#     81517
#     103807
#     125320
#     145020
#     164755
#     183860
#     205850
#     226830
#     242875
#     264772
#     285887
#     306057
# 
# Disc length: 4322 seconds
# 
# Revision: 1
# Processed by: cddbd v1.4b41PL1 Copyright (c) Steve Scherf et al.
# Submitted via: DiscPlay 4.0.4
# 
DISCID=d610e010
DTITLE=Mariah Carey - PLATINUM - CD 1
DYEAR=1900
DGENRE=
TTITLE0=Honey
TTITLE1=Fantasy
TTITLE2=Without You
TTITLE3=Make It Happen
TTITLE4=There's Got to Be a Way
TTITLE5=One Sweet Day
TTITLE6=Now That I Know
TTITLE7=I'll Be There
TTITLE8=Emotions
TTITLE9=I Don't Wanna Cry
TTITLE10=Butterfly
TTITLE11=Open Arms
TTITLE12=I've Been Thinking About You
TTITLE13=If It's Over
TTITLE14=Prisoner
TTITLE15=All I Want for Christmas Is You
EXTD=
EXTT0=
EXTT1=
EXTT2=
EXTT3=
EXTT4=
EXTT5=
EXTT6=
EXTT7=
EXTT8=
EXTT9=
EXTT10=
EXTT11=
EXTT12=
EXTT13=
EXTT14=
EXTT15=
PLAYORDER=
